<mxfile host="Electron" agent="Mozilla/5.0 (Windows NT 10.0; Win64; x64) AppleWebKit/537.36 (KHTML, like Gecko) draw.io/24.5.3 Chrome/124.0.6367.207 Electron/30.0.6 Safari/537.36" modified="2025-01-16T11:14:19.767Z" version="24.5.3" etag="1L3coPHYiQnEr-xKE2Ym" type="device">
  <diagram name="Page-1" id="XtsB5G7eF5gW3wdEnE30">
    <mxGraphModel dx="2261" dy="2013" grid="1" gridSize="10" guides="1" tooltips="1" connect="1" arrows="1" fold="1" page="1" pageScale="1" pageWidth="827" pageHeight="1169" math="0" shadow="0">
      <root>
        <mxCell id="0" />
        <mxCell id="1" parent="0" />
        <mxCell id="_7S4Zgis2QrUMD5y6pF2-1" value="" style="whiteSpace=wrap;html=1;aspect=fixed;fontStyle=1" parent="1" vertex="1">
          <mxGeometry x="-240" y="-30" width="870" height="870" as="geometry" />
        </mxCell>
        <mxCell id="_7S4Zgis2QrUMD5y6pF2-2" value="NAME" style="text;html=1;align=center;verticalAlign=middle;whiteSpace=wrap;rounded=0;" parent="1" vertex="1">
          <mxGeometry x="-330" y="70" width="270" height="30" as="geometry" />
        </mxCell>
        <mxCell id="_7S4Zgis2QrUMD5y6pF2-3" value="&lt;div style=&quot;background-color:#1e1f22;color:#bcbec4&quot;&gt;&lt;pre style=&quot;font-family:&#39;JetBrains Mono&#39;,monospace;font-size:9.8pt;&quot;&gt;&lt;span style=&quot;color:#6aab73;&quot;&gt;How many days a week do you use reusable cups? (enter a number between 0 - 7)&lt;/span&gt;&lt;/pre&gt;&lt;/div&gt;" style="text;html=1;align=center;verticalAlign=middle;whiteSpace=wrap;rounded=0;" parent="1" vertex="1">
          <mxGeometry x="-50" y="160" width="250" height="30" as="geometry" />
        </mxCell>
        <mxCell id="_7S4Zgis2QrUMD5y6pF2-4" value="&lt;div style=&quot;background-color:#1e1f22;color:#bcbec4&quot;&gt;&lt;pre style=&quot;font-family:&#39;JetBrains Mono&#39;,monospace;font-size:9.8pt;&quot;&gt;&lt;span style=&quot;color:#6aab73;&quot;&gt;How many days a week do you recycle? (enter a number between 0 - 7)&lt;/span&gt;&lt;/pre&gt;&lt;/div&gt;" style="text;html=1;align=center;verticalAlign=middle;whiteSpace=wrap;rounded=0;" parent="1" vertex="1">
          <mxGeometry x="-120" y="270" width="310" height="30" as="geometry" />
        </mxCell>
        <mxCell id="_7S4Zgis2QrUMD5y6pF2-5" value="&lt;div style=&quot;background-color:#1e1f22;color:#bcbec4&quot;&gt;&lt;pre style=&quot;font-family:&#39;JetBrains Mono&#39;,monospace;font-size:9.8pt;&quot;&gt;&lt;span style=&quot;color:#6aab73;&quot;&gt;How many days a week do you use public transportation? (enter a number between 0 - 7)&lt;/span&gt;&lt;/pre&gt;&lt;/div&gt;" style="text;html=1;align=center;verticalAlign=middle;whiteSpace=wrap;rounded=0;" parent="1" vertex="1">
          <mxGeometry x="-50" y="370" width="320" height="30" as="geometry" />
        </mxCell>
        <mxCell id="_7S4Zgis2QrUMD5y6pF2-6" value="&lt;div style=&quot;background-color:#1e1f22;color:#bcbec4&quot;&gt;&lt;pre style=&quot;font-family:&#39;JetBrains Mono&#39;,monospace;font-size:9.8pt;&quot;&gt;&lt;span style=&quot;color:#6aab73;&quot;&gt;How many days a week do you walk instead of using a car (enter a number between 0 - 7)&lt;/span&gt;&lt;/pre&gt;&lt;/div&gt;" style="text;html=1;align=center;verticalAlign=middle;whiteSpace=wrap;rounded=0;" parent="1" vertex="1">
          <mxGeometry x="-45" y="460" width="310" height="30" as="geometry" />
        </mxCell>
        <mxCell id="_7S4Zgis2QrUMD5y6pF2-8" value="Display name" style="text;html=1;align=center;verticalAlign=middle;whiteSpace=wrap;rounded=0;" parent="1" vertex="1">
          <mxGeometry x="-310" y="710" width="250" height="30" as="geometry" />
        </mxCell>
        <mxCell id="_7S4Zgis2QrUMD5y6pF2-9" value="Score and rating" style="text;html=1;align=center;verticalAlign=middle;whiteSpace=wrap;rounded=0;" parent="1" vertex="1">
          <mxGeometry x="-310" y="730" width="250" height="30" as="geometry" />
        </mxCell>
        <mxCell id="_7S4Zgis2QrUMD5y6pF2-10" value="Improvements" style="text;html=1;align=center;verticalAlign=middle;whiteSpace=wrap;rounded=0;" parent="1" vertex="1">
          <mxGeometry x="-310" y="750" width="250" height="30" as="geometry" />
        </mxCell>
        <mxCell id="_7S4Zgis2QrUMD5y6pF2-11" value="Submit button" style="rounded=1;whiteSpace=wrap;html=1;" parent="1" vertex="1">
          <mxGeometry x="-230" y="660" width="80" height="30" as="geometry" />
        </mxCell>
        <mxCell id="bPlPeWvdgO4VvOXaGfPD-1" value="" style="rounded=0;whiteSpace=wrap;html=1;" vertex="1" parent="1">
          <mxGeometry x="-220" y="300" width="370" height="60" as="geometry" />
        </mxCell>
        <mxCell id="bPlPeWvdgO4VvOXaGfPD-2" value="" style="rounded=0;whiteSpace=wrap;html=1;" vertex="1" parent="1">
          <mxGeometry x="-220" y="400" width="370" height="60" as="geometry" />
        </mxCell>
        <mxCell id="bPlPeWvdgO4VvOXaGfPD-3" value="" style="rounded=0;whiteSpace=wrap;html=1;" vertex="1" parent="1">
          <mxGeometry x="-220" y="190" width="370" height="60" as="geometry" />
        </mxCell>
        <mxCell id="bPlPeWvdgO4VvOXaGfPD-4" value="" style="rounded=0;whiteSpace=wrap;html=1;" vertex="1" parent="1">
          <mxGeometry x="-220" y="90" width="370" height="60" as="geometry" />
        </mxCell>
        <mxCell id="bPlPeWvdgO4VvOXaGfPD-5" value="" style="rounded=0;whiteSpace=wrap;html=1;" vertex="1" parent="1">
          <mxGeometry x="-220" y="490" width="370" height="60" as="geometry" />
        </mxCell>
        <mxCell id="bPlPeWvdgO4VvOXaGfPD-6" value="" style="rounded=0;whiteSpace=wrap;html=1;" vertex="1" parent="1">
          <mxGeometry x="-220" y="590" width="370" height="60" as="geometry" />
        </mxCell>
        <mxCell id="bPlPeWvdgO4VvOXaGfPD-7" style="edgeStyle=orthogonalEdgeStyle;rounded=0;orthogonalLoop=1;jettySize=auto;html=1;exitX=0.5;exitY=1;exitDx=0;exitDy=0;" edge="1" parent="1" source="_7S4Zgis2QrUMD5y6pF2-5" target="_7S4Zgis2QrUMD5y6pF2-5">
          <mxGeometry relative="1" as="geometry" />
        </mxCell>
        <mxCell id="bPlPeWvdgO4VvOXaGfPD-8" style="edgeStyle=orthogonalEdgeStyle;rounded=0;orthogonalLoop=1;jettySize=auto;html=1;exitX=0.5;exitY=1;exitDx=0;exitDy=0;" edge="1" parent="1" source="_7S4Zgis2QrUMD5y6pF2-9" target="_7S4Zgis2QrUMD5y6pF2-9">
          <mxGeometry relative="1" as="geometry" />
        </mxCell>
        <mxCell id="bPlPeWvdgO4VvOXaGfPD-9" value="" style="endArrow=classic;html=1;rounded=0;" edge="1" parent="1">
          <mxGeometry width="50" height="50" relative="1" as="geometry">
            <mxPoint x="-230" y="670" as="sourcePoint" />
            <mxPoint x="-350" y="670" as="targetPoint" />
          </mxGeometry>
        </mxCell>
        <mxCell id="bPlPeWvdgO4VvOXaGfPD-10" value="" style="endArrow=classic;html=1;rounded=0;" edge="1" parent="1">
          <mxGeometry width="50" height="50" relative="1" as="geometry">
            <mxPoint x="-350" y="660" as="sourcePoint" />
            <mxPoint x="-350" y="730" as="targetPoint" />
          </mxGeometry>
        </mxCell>
        <mxCell id="bPlPeWvdgO4VvOXaGfPD-11" value="" style="endArrow=classic;html=1;rounded=0;" edge="1" parent="1" target="_7S4Zgis2QrUMD5y6pF2-9">
          <mxGeometry width="50" height="50" relative="1" as="geometry">
            <mxPoint x="-350" y="730" as="sourcePoint" />
            <mxPoint x="-300" y="680" as="targetPoint" />
            <Array as="points">
              <mxPoint x="-340" y="720" />
              <mxPoint x="-240" y="725" />
            </Array>
          </mxGeometry>
        </mxCell>
        <mxCell id="bPlPeWvdgO4VvOXaGfPD-12" value="&lt;div style=&quot;background-color:#1e1f22;color:#bcbec4&quot;&gt;&lt;pre style=&quot;font-family:&#39;JetBrains Mono&#39;,monospace;font-size:9.8pt;&quot;&gt;&lt;span style=&quot;color:#6aab73;&quot;&gt;How many days a week do you take time away from your screen? (enter a number between 0 - 7)&lt;/span&gt;&lt;/pre&gt;&lt;/div&gt;" style="text;whiteSpace=wrap;html=1;" vertex="1" parent="1">
          <mxGeometry x="-230" y="550" width="560" height="70" as="geometry" />
        </mxCell>
        <mxCell id="bPlPeWvdgO4VvOXaGfPD-13" value="ECO HABIT TRACKER!" style="text;html=1;align=center;verticalAlign=middle;whiteSpace=wrap;rounded=0;" vertex="1" parent="1">
          <mxGeometry x="-225" y="-20" width="60" height="30" as="geometry" />
        </mxCell>
      </root>
    </mxGraphModel>
  </diagram>
</mxfile>
